<?xml version="1.0" encoding="UTF-8"?>
<svg width="99px" height="38px" viewBox="0 0 99 38" version="1.1" xmlns="http://www.w3.org/2000/svg" xmlns:xlink="http://www.w3.org/1999/xlink">
    <!-- Generator: Sketch 59.1 (86144) - https://sketch.com -->
    <title>Group 7</title>
    <desc>Created with Sketch.</desc>
    <defs>
        <polygon id="path-1" points="0 38 99 38 99 0 0 0"></polygon>
    </defs>
    <g id="About" stroke="none" stroke-width="1" fill="none" fill-rule="evenodd">
        <g id="Large-Devices_About-Copy-2" transform="translate(-127.000000, -3699.000000)">
            <g id="Group-7" transform="translate(127.000000, 3699.000000)">
                <path d="M41.3038113,20.4726732 C40.6286317,20.7675949 40.0370197,21.1728219 39.5301468,21.6891284 C39.024055,22.2054348 38.6198844,22.8130818 38.3195876,23.5124565 C38.0189003,24.2129922 37.8693377,24.9491353 37.8693377,25.7224338 C37.8693377,26.4965065 38.0189003,27.2241348 38.3195876,27.9053187 C38.6198844,28.5872767 39.024055,29.1852478 39.5301468,29.7015543 C40.0370197,30.2182477 40.6286317,30.6227007 41.3038113,30.9172353 C41.9793814,31.2113829 42.711184,31.3588438 43.4996095,31.3588438 C44.2505467,31.3588438 44.9636051,31.2113829 45.6391753,30.9172353 C46.3151359,30.6227007 46.9067479,30.2182477 47.4128397,29.7015543 C47.9193221,29.1852478 48.3231022,28.5957915 48.6237894,27.9331853 C48.9236957,27.2701921 49.0740394,26.5518527 49.0740394,25.77778 C49.0740394,24.157646 48.5390503,22.7945041 47.4690722,21.6891284 C46.399875,20.5837526 45.0764605,20.0302907 43.4996095,20.0302907 C42.711184,20.0302907 41.9793814,20.1777515 41.3038113,20.4726732 L41.3038113,20.4726732 Z M37.9259606,0 L37.9259606,15.0081074 C39.1306623,14.3760771 40.1748672,13.9476279 41.060528,13.724695 C41.9454077,13.500988 42.8955014,13.3899085 43.9127616,13.3899085 C45.5692752,13.3899085 47.1316776,13.7157931 48.6007498,14.3660141 C50.0690409,15.0181703 51.3495002,15.9010002 52.4413465,17.0168259 C53.5324117,18.1334257 54.3981568,19.426127 55.0389722,20.8953169 C55.6793971,22.3652808 56,23.9366483 56,25.6113544 C56,27.322442 55.6696345,28.931739 55.011637,30.4380844 C54.3536395,31.9452038 53.4597782,33.2564829 52.3312246,34.3723086 C51.202671,35.4889084 49.876523,36.3728993 48.3523899,37.0231203 C46.8290378,37.6733413 45.2018119,38 43.4714933,38 C41.3272415,38 39.3235708,37.4976269 37.4608716,36.4936546 C35.5985629,35.4889084 34.1037176,34.0932554 32.9755545,32.3078568 C32.5991097,31.712982 32.2796782,31.1362979 32.0160887,30.5778045 C31.7524992,30.0196981 31.5459231,29.4159215 31.3947985,28.7637653 C31.2440644,28.1135442 31.1413621,27.396753 31.0847391,26.6157137 C31.0285067,25.8342873 31,24.9232038 31,23.880915 L31,0 L37.9259606,0 Z" id="Fill-1" fill="#FFFFFF"></path>
                <mask id="mask-2" fill="white">
                    <use xlink:href="#path-1"></use>
                </mask>
                <g id="Clip-4"></g>
                <polygon id="Fill-3" fill="#FFFFFF" mask="url(#mask-2)" points="61 38 68 38 68 0 61 0"></polygon>
                <path d="M84.274907,20.7276386 C83.5786842,21.0276203 82.9643924,21.4344247 82.433937,21.9469545 C81.9027193,22.4591183 81.4903969,23.0682275 81.1977318,23.7750137 C80.9039235,24.4807024 80.7579721,25.22334 80.7579721,25.9996342 C80.7579721,26.8125114 80.9039235,27.5635632 81.1977318,28.2524236 C81.4903969,28.9420157 81.9027193,29.5416133 82.433937,30.054143 C82.9643924,30.5670386 83.5786842,30.9734772 84.274907,31.2730931 C84.9699866,31.5730748 85.7214652,31.7237973 86.5278184,31.7237973 C87.2968264,31.7237973 88.0288702,31.5730748 88.725093,31.2730931 C89.4205536,30.9734772 90.0344644,30.5670386 90.566063,30.054143 C91.0961374,29.5416133 91.5080788,28.9420157 91.8018871,28.2524236 C92.0949332,27.5635632 92.2416469,26.8304372 92.2416469,26.0526797 C92.2416469,25.2767514 92.0949332,24.5348454 91.8018871,23.8276934 C91.5080788,23.1209073 91.0961374,22.5030181 90.566063,21.9732943 C90.0344644,21.4428389 89.4205536,21.0276203 88.725093,20.7276386 C88.0288702,20.4280227 87.2968264,20.2765685 86.5278184,20.2765685 C85.7214652,20.2765685 84.9699866,20.4280227 84.274907,20.7276386 M91.4173831,14.9493324 C92.919197,15.5825864 94.2380952,16.4528992 95.3736967,17.5602707 C96.5089171,18.668008 97.3972014,19.9601244 98.0385495,21.4377172 C98.6791354,22.9142125 99,24.496799 99,26.1847448 C99,27.8024511 98.6699896,29.3228462 98.0111121,30.7473935 C97.3514725,32.1712091 96.4536614,33.4201573 95.3184409,34.4927748 C94.1828395,35.5657582 92.8547954,36.4177794 91.33469,37.0510335 C89.8145845,37.6839217 88.2117859,38 86.5278184,38 C84.8053625,38 83.1846534,37.6839217 81.6645479,37.0510335 C80.1444424,36.4177794 78.8160173,35.5657582 77.6807969,34.4927748 C76.5451954,33.4201573 75.6481465,32.154015 74.9892689,30.6947137 C74.3292482,29.2357783 74,27.6798976 74,26.025974 C74,24.3738796 74.3292482,22.8179989 74.9892689,21.3583318 C75.6481465,19.8993964 76.5451954,18.6241083 77.6807969,17.5339309 C78.8160173,16.4444851 80.1444424,15.5825864 81.6645479,14.9493324 C83.1846534,14.3164441 84.8244162,14 86.5823121,14 C88.3040059,14 89.9151881,14.3164441 91.4173831,14.9493324" id="Fill-5" fill="#FFFFFF" mask="url(#mask-2)"></path>
                <path d="M10.274907,20.7276386 C9.57868423,21.0276203 8.96439242,21.4344247 8.43393696,21.9469545 C7.90271935,22.4591183 7.490778,23.0682275 7.19773185,23.7750137 C6.90392354,24.4807024 6.75797207,25.22334 6.75797207,25.9996342 C6.75797207,26.8125114 6.90392354,27.5635632 7.19773185,28.2524236 C7.490778,28.9420157 7.90271935,29.5416133 8.43393696,30.054143 C8.96439242,30.5670386 9.57868423,30.9734772 10.274907,31.2730931 C10.9703677,31.5730748 11.7214652,31.7237973 12.5278184,31.7237973 C13.2968264,31.7237973 14.0288702,31.5730748 14.725093,31.2730931 C15.4201726,30.9734772 16.0348454,30.5670386 16.565682,30.054143 C17.0961374,29.5416133 17.5084599,28.9420157 17.8018871,28.2524236 C18.0953143,27.5635632 18.2416469,26.8304372 18.2416469,26.0526797 C18.2416469,25.2767514 18.0953143,24.5348454 17.8018871,23.8276934 C17.5084599,23.1209073 17.0961374,22.5030181 16.565682,21.9732943 C16.0348454,21.4428389 15.4201726,21.0276203 14.725093,20.7276386 C14.0288702,20.4280227 13.2968264,20.2765685 12.5278184,20.2765685 C11.7214652,20.2765685 10.9703677,20.4280227 10.274907,20.7276386 M17.4177642,14.9493324 C18.919197,15.5825864 20.2380952,16.4528992 21.3736967,17.5602707 C22.5089171,18.668008 23.3968203,19.9601244 24.0389306,21.4377172 C24.6791354,22.9142125 25,24.496799 25,26.1847448 C25,27.8024511 24.6703707,29.3228462 24.0111121,30.7473935 C23.3514725,32.1712091 22.4536614,33.4201573 21.318822,34.4927748 C20.1828395,35.5657582 18.8544144,36.4177794 17.335071,37.0510335 C15.8149656,37.6839217 14.2121669,38 12.5278184,38 C10.8053625,38 9.18465337,37.6839217 7.66492897,37.0510335 C6.14444241,36.4177794 4.81601732,35.5657582 3.68117798,34.4927748 C2.54519541,33.4201573 1.64814645,32.154015 0.989268947,30.6947137 C0.329248217,29.2357783 0,27.6798976 0,26.025974 C0,24.3738796 0.329248217,22.8179989 0.989268947,21.3583318 C1.64814645,19.8993964 2.54519541,18.6241083 3.68117798,17.5339309 C4.81601732,16.4444851 6.14444241,15.5825864 7.66492897,14.9493324 C9.18465337,14.3164441 10.8244162,14 12.581931,14 C14.3040059,14 15.9151881,14.3164441 17.4177642,14.9493324" id="Fill-6" fill="#FFFFFF" mask="url(#mask-2)"></path>
            </g>
        </g>
    </g>
</svg>