<svg version="1" xmlns="http://www.w3.org/2000/svg" width="346.667" height="346.667" viewBox="0 0 260.000000 260.000000"><path d="M109.5 1.6C54.3 10 9.7 55 1.6 110.1c-9.4 63.7 27.1 123.2 87.7 143.4 67.8 22.6 141.5-14.6 164.2-82.8 22.6-67.8-14.6-141.5-82.8-164.2-18.5-6.1-41.3-8-61.2-4.9zM170 123.5V168h-18v-3c0-3.6-.3-3.7-4.3-.6-10 7.7-28.9 5.4-39-4.7-5.8-5.8-8-11.6-8.5-22.2-.5-11.6 1.9-18.7 8.8-25.5 10-10.1 29.6-12.3 39-4.4l3 2.6V79h19v44.5zm37.8-26.3l.3 7.8H224v15h-16v29.9l2.8 2.1c2.6 2.1 6.9 2.3 11.3.6 1.2-.5 2 .8 3.7 5.6 1.2 3.5 2.2 6.6 2.2 7 0 1.3-10.3 3.8-15.5 3.8-10.9 0-20-6-22.4-14.7-.6-2.1-1.1-10.7-1.1-19.1V120h-10v-15h10V88.9l9.3.3 9.2.3.3 7.7zm-123.3 8.3c2.8.9 5.4 2 5.8 2.5.5.4-.6 3.7-2.4 7.2l-3.2 6.6-4.3-2c-9-3.9-23-3.3-25.4 1.2-2.3 4.3.6 6 14.5 8.5 15.2 2.8 22.1 7.3 23.2 15.3 1.3 9.5-3.3 17-13 21.3-7.4 3.4-25 3.4-35.2.2-10.6-3.4-10.3-3.1-6.9-10.7 2-4.7 3.3-6.5 4.4-6.2.8.3 4.2 1.5 7.5 2.7 11.6 4.1 25.5 2.5 25.5-3.1 0-2.7-4-4.5-13.4-6-12.7-2-17-3.6-20.9-7.9-9.2-10.2-3.8-24.9 10.9-30.3 6.4-2.3 25.4-1.9 32.9.7z"/><path d="M128.4 119.9c-5.6 2.5-8.7 7.1-9.2 13.8-1 11.7 5.2 19.3 15.8 19.3 10.7 0 16.6-6.9 15.8-18.7-.5-7.5-2.6-10.8-8.8-14.1-5.3-2.7-8.2-2.7-13.6-.3z"/></svg>